<?xml version="1.0" standalone="no"?>
<!DOCTYPE svg PUBLIC "-//W3C//DTD SVG 20010904//EN"
 "http://www.w3.org/TR/2001/REC-SVG-20010904/DTD/svg10.dtd">
<svg version="1.0" xmlns="http://www.w3.org/2000/svg"
 width="432.000000pt" height="432.000000pt" viewBox="0 0 432.000000 432.000000"
 preserveAspectRatio="xMidYMid meet">
<metadata>
Created by potrace 1.14, written by Peter Selinger 2001-2017
</metadata>
<g transform="translate(0.000000,432.000000) scale(0.100000,-0.100000)"
fill="#000000" stroke="none">
<path d="M2117 3246 c-21 -8 -47 -22 -59 -32 -20 -19 -112 -170 -278 -459 -48
-82 -156 -269 -242 -415 -85 -146 -167 -289 -183 -317 -15 -29 -32 -53 -36
-53 -4 0 -58 87 -120 193 -139 237 -151 255 -186 278 -51 34 -155 19 -194 -27
-9 -11 -31 -46 -49 -78 -18 -33 -69 -119 -114 -192 -44 -73 -139 -229 -210
-346 -185 -305 -227 -369 -236 -363 -13 8 0 -72 27 -165 33 -114 100 -273 171
-400 l58 -105 225 -3 c123 -2 251 0 284 3 l60 6 65 81 c125 155 137 186 82
211 -22 10 -27 8 -61 -31 -40 -47 -76 -55 -104 -24 -35 38 -22 68 81 191 54
64 116 140 137 168 23 30 47 52 56 50 13 -2 93 -95 257 -299 37 -47 41 -79 12
-108 -31 -31 -65 -25 -95 14 -33 43 -52 50 -82 31 -17 -11 -23 -24 -21 -40 2
-13 43 -76 92 -139 l89 -116 206 1 206 0 58 75 c58 75 68 106 44 138 -23 32
-67 23 -105 -20 -111 -126 -109 -124 -157 -124 -60 0 -97 31 -97 83 0 43 29
82 241 317 107 118 131 151 131 176 0 37 -16 54 -51 54 -21 0 -42 -16 -89 -67
-69 -77 -102 -96 -140 -81 -43 16 -60 39 -60 78 0 33 17 57 175 241 110 128
175 212 175 226 0 36 -28 55 -74 51 -38 -3 -41 -1 -44 24 -3 22 15 51 89 143
58 72 99 115 110 115 22 0 38 -15 94 -85 22 -28 57 -69 78 -93 28 -32 37 -50
35 -70 -3 -24 -7 -27 -48 -30 -49 -4 -80 -24 -80 -53 0 -10 42 -66 93 -125
256 -293 267 -307 267 -336 0 -42 -17 -68 -55 -84 -48 -20 -71 -8 -145 75 -70
79 -105 91 -134 49 -28 -40 -39 -23 184 -278 69 -78 137 -158 153 -178 57 -74
21 -152 -70 -152 -46 0 -49 2 -129 85 -45 47 -89 85 -98 85 -23 0 -56 -36 -56
-62 0 -13 26 -58 58 -100 l57 -78 196 0 196 0 89 116 c93 120 106 150 79 178
-25 25 -51 19 -76 -17 -29 -41 -38 -47 -71 -47 -30 0 -58 32 -58 65 0 12 19
44 43 71 23 27 86 105 141 172 54 67 102 122 107 122 7 0 195 -221 267 -314
43 -56 19 -116 -47 -116 -26 0 -36 7 -52 35 -32 54 -83 58 -95 8 -5 -18 1 -35
22 -62 16 -21 58 -77 94 -124 l65 -87 297 0 297 0 32 46 c73 106 170 342 210
509 l20 87 -79 132 c-71 118 -136 223 -297 486 -160 261 -192 316 -189 322 2
3 1 8 -4 10 -4 1 -18 19 -30 39 -38 63 -135 89 -202 54 -39 -20 -59 -49 -190
-277 -63 -109 -116 -198 -119 -198 -4 0 -19 24 -35 53 -16 28 -114 194 -216
367 -103 173 -244 412 -313 530 -69 118 -138 233 -154 254 -53 73 -109 96
-176 72z m1515 -1378 c-35 -49 -37 -57 -37 -124 0 -66 3 -76 31 -110 51 -64
76 -77 144 -77 33 0 60 -3 60 -7 0 -13 -66 -69 -93 -79 -41 -16 -114 -13 -152
4 -120 58 -171 211 -109 326 36 65 110 115 176 118 14 1 10 -10 -20 -51z"/>
</g>
</svg>
